<?xml version="1.0" encoding="utf-8"?>
<!-- Generator: Adobe Illustrator 27.5.0, SVG Export Plug-In . SVG Version: 6.00 Build 0)  -->
<svg version="1.1" id="Layer_1" xmlns="http://www.w3.org/2000/svg" xmlns:xlink="http://www.w3.org/1999/xlink" x="0px" y="0px"
	 viewBox="0 0 530.487 450" style="enable-background:new 0 0 530.487 450;" xml:space="preserve">
<g>
	<rect y="0" style="fill:transparent;" width="530.487" height="450"/>
	
		<ellipse transform="matrix(0.0054 -1 1 0.0054 -34.9126 560.2221)" style="fill:#003a6e;" cx="264.178" cy="297.662" rx="125.75" ry="217.814"/>
	<g>
		<path style="fill:#BFB5BF;" d="M439.703,248.785c-11.353-6.555-29.703-6.588-40.985-0.074c-2.932,1.693-5.08,3.664-6.481,5.765
			c-1.307,0.535-2.568,1.123-3.738,1.798c-11.282,6.514-11.225,17.108,0.128,23.663c11.353,6.555,29.703,6.588,40.985,0.074
			c2.932-1.693,5.081-3.664,6.482-5.765c1.306-0.535,2.568-1.123,3.737-1.798C451.114,265.934,451.056,255.34,439.703,248.785z"/>
		<g>
			<g>
				<path style="fill:#FEBFBF;" d="M404.919,144.381c0,0-4.173,0.654-5.371,4.394c-1.198,3.74-1.426,14.925-1.824,17.165
					c-0.399,2.24-1.194,4.678-1.371,4.889c-0.177,0.211-0.87,0.78,0.928,3.195c1.798,2.415,4.154,3.703,5.269,2.495
					c1.114-1.208,2.253-10.908,2.424-15.036C405.145,157.356,404.919,144.381,404.919,144.381z"/>
				<path style="fill:#FEBFBF;" d="M379.304,195.396c0,0,0.797,1.328,0.952,1.372c0.155,0.044,0.819,0.708,1.283,0.62
					c0.442-0.067,0.863-0.686,0.863-0.686s0.841,0.863,1.372,0.819c0.531-0.023,1.018-0.399,1.018-0.399s0.797,0.044,1.106-0.243
					c0.288-0.288,0.288-0.288,0.288-0.288s0.841-0.265,1.084-0.685c0.265-0.443-0.244-1.881-0.244-1.881s0.841-1.792,0.907-2.478
					c0.044-0.398,0-0.796-0.044-1.084c-0.066-0.221-0.089-0.332-0.089-0.332s13.253-10.775,14.293-13.099
					c0.708-1.549-1.46-3.407-3.009-4.491c-0.797-0.532-1.416-0.885-1.416-0.885s-1.151-0.575-1.571-0.398
					c-0.398,0.199-2.102,1.46-3.872,4.536c-1.792,3.053-5.089,6.615-7.146,9.27c-2.058,2.655-5.863,7.766-6.107,8.275
					C378.728,193.87,379.304,195.396,379.304,195.396z"/>
				
					<linearGradient id="SVGID_1_" gradientUnits="userSpaceOnUse" x1="8666.8223" y1="183.0414" x2="8676.1924" y2="194.9029" gradientTransform="matrix(-1 0 0 1 9060.9346 0)">
					<stop  offset="0.1224" style="stop-color:#FCA4B5"/>
					<stop  offset="0.9896" style="stop-color:#FFADB7"/>
				</linearGradient>
				<path style="fill:url(#SVGID_1_);" d="M386.163,189.224c0,0,0,0,0.553,0.132c0.553,0.155,1.084,0.775,1.084,0.775
					s13.253-10.775,14.293-13.099c0.708-1.549-1.46-3.407-3.009-4.491c-0.221,2.544-0.664,4.956-0.952,6.217
					c-0.42,1.902-7.545,8.208-8.872,9.447C387.933,189.467,386.163,189.224,386.163,189.224z"/>
				<path style="fill:#FA9698;" d="M387.027,194.029c0,0-0.038-0.403-0.487-0.502c-0.45-0.099-0.691-0.094-0.691-0.094
					s-0.145-0.294-0.653-0.375c-0.508-0.081-0.706,0.152-0.706,0.152s-0.552-0.08-0.857,0.075l-1.725,0.647l0.99,3.03l-0.827,0.125
					l-0.514-1.536l-0.245-0.515c0,0-0.357,0.174-0.486,0.304c-0.129,0.131-0.226,0.025-0.226,0.025s-0.454-0.878-0.415-1.169
					c0.04-0.291,0.258-1.076,0.258-1.076s0.827,0.187,1.123,0.191c0.296,0.003,2.5-0.595,2.5-0.595l1.354-0.49l0.49-1.008
					l0.143,1.669l0.525,0.361C386.578,193.247,387.134,193.386,387.027,194.029z"/>
				<path style="fill:#FFDC6E;" d="M407.966,141.245c0,0-6.534-0.691-8.278,6.124c-0.981,3.834-2.715,14.514-2.715,14.514
					s2.86,2.961,7.045,3.08C408.203,165.083,407.966,141.245,407.966,141.245z"/>
			</g>
			<g>
				<path style="fill:#5C6467;" d="M402.143,262.792c0,0-3.512,1.613-4.197,2.195c-0.685,0.582-5.044,4.231-5.335,4.796
					c-0.291,0.565-1.656,1.703-1.673,2.957c-0.016,1.254,1.516,2.435,2.806,2.401c1.29-0.033,5.395-1.35,7.01-2.977
					c1.615-1.626,2.591-2.774,2.886-2.864c0.294-0.09,0.321,0.082,1.054,0.206c0.733,0.124,3.702-1.246,4.061-2.051
					c0.359-0.805,1.114-4.113,0.659-5.055C408.96,261.458,402.143,262.792,402.143,262.792z"/>
				<path style="fill:#FEBFBF;" d="M401.664,261.758c0,0-3.272,3.329-3.568,4.089c-0.296,0.76,1.174,1.483,3.224,1.578
					c2.051,0.095,4.592-2.053,4.592-2.053s2.195-3.14,1.231-4.755C406.18,259.002,401.664,261.758,401.664,261.758z"/>
				<path style="fill:#7282B5;" d="M397.491,210.663c0.376,11.859,0.133,15.222,0.398,18.807c0.243,3.562,2.213,31.662,2.235,33.077
					c0.022,1.394,3.031,2.19,4.912,2.08h0.066c1.903-0.111,3.584-1.814,3.629-2.788c0.044-0.951,2.19-24.78,0.664-32.745
					c-0.443-2.324,4.115-18.232,4.115-18.232s0.044-0.509,0.133-1.327c0.31-3.208,0.952-11.262,0.111-13.297
					c-1.062-2.567-14.736-0.332-14.736-0.332S397.115,198.782,397.491,210.663z"/>
				<path style="fill:#E8D0C8;" d="M405.036,264.627h0.066c1.903-0.111,3.584-1.814,3.629-2.788
					c0.044-0.951,2.19-24.78,0.664-32.745c-0.443-2.324,4.115-18.232,4.115-18.232s0.044-0.509,0.133-1.327l-6.779-1.53
					c0,0,1.239,2.212-0.089,6.549c-1.35,4.315,0.938,13.168,0.761,14.452c-0.177,1.283,1.483,1.77,1.018,11.35
					C408.177,248.188,408.355,260.07,405.036,264.627z"/>
				<path style="fill:#5C6467;" d="M428.715,255.06c0,0-2.362,3.399-2.653,3.965c-0.291,0.565-3.622,6.063-3.746,6.796
					c-0.124,0.733,0.048,1.368,0.574,1.894c0.526,0.526,2.552,1.259,3.956,0.882s3.589-1.572,4.742-2.774
					c1.153-1.202,2.5-4.549,2.5-4.549s1.409-1.577,1.792-2.35c0.383-0.773,1.336-1.785,1.438-2.885
					c0.102-1.1,0.221-1.806-0.809-2.65C435.479,252.544,428.715,255.06,428.715,255.06z"/>
				<path style="fill:#FEBFBF;" d="M428.612,254.243c0,0-1.193,3.525-1.226,4.217c-0.033,0.693,1.677,1.461,3.26,1.226
					c1.584-0.235,2.185-1.719,2.653-2.175c0.468-0.455,2.3-3.624,1.809-4.685C434.617,251.767,428.612,254.243,428.612,254.243z"/>
				<path style="fill:#7282B5;" d="M404.881,205.088c-0.111,1.991,1.504,4.381,1.504,4.381l3.695,4.757
					c0,0,2.279,2.102,5.775,19.382c2.832,5.531,11.793,21.617,11.793,21.617s2.589,2.655,5.598,1.195
					c1.239-0.598,2.124-1.372,2.677-2.08c0.642-0.797,0.929-1.483,0.907-1.704c-0.044-1.173-5.841-15.554-6.616-17.634
					c-0.752-2.058-3.717-7.125-3.717-7.125s-0.022-7.677,0.221-10.244c0.421-4.691,4.491-16.35,3.098-18.674
					c-0.199-0.332-0.863-0.597-1.881-0.797c-5.774-1.173-22.523-0.199-22.523-0.199S404.992,203.097,404.881,205.088z"/>
				<g>
					<path style="fill:#A0ABCD;" d="M435.657,254.417l0.531-0.156c-4.393-15.045-7.724-19.399-9.717-22
						c-0.663-0.866-1.141-1.492-1.43-2.242c-2.517-6.546,0.707-18.392,1.379-20.699c1.566-5.395,0.866-8.974,0.834-9.124l-0.54,0.11
						c0.007,0.036,0.7,3.606-0.825,8.859c-0.681,2.338-3.943,14.34-1.361,21.053c0.315,0.824,0.815,1.476,1.506,2.379
						C427.999,235.168,431.292,239.47,435.657,254.417z"/>
				</g>
				<path style="fill:#E8D0C8;" d="M425.28,229.05c2.832,2.987,5.465,10.177,7.478,15.156c1.66,4.115,3.031,7.169,3.164,10.134
					c0.642-0.797,0.929-1.483,0.907-1.704c-0.044-1.173-5.841-15.554-6.616-17.634c-0.752-2.058-3.717-7.125-3.717-7.125
					s-0.022-7.677,0.221-10.244c0.421-4.691,4.491-16.35,3.098-18.674c-0.199-0.332-0.863-0.597-1.881-0.797
					c0,0.067-0.022,0.133-0.022,0.199c0,0,1.018,0.487-0.531,7.191C425.834,212.256,423.842,223.253,425.28,229.05z"/>
				<path style="fill:#FDD249;" d="M398.133,197.012c0.907,1.172,6.682,4.004,13.762,5.332c2.212,0.42,4.536,0.685,6.903,0.708
					h0.022c1.151,0,2.301-0.044,3.451-0.155c2.721-0.266,4.978-1.416,6.527-2.456c1.46-0.995,2.301-1.881,2.301-1.881
					s-3.938-11.593-0.752-24.758c0.354-1.482,0.686-2.854,0.951-4.115c2.212-9.956,1.947-13.519,0.642-17.103
					c-1.239-3.452-7.102-5.709-10.111-8.164c-3.009-2.434-6.173-2.28-8.297-2.036c-2.124,0.244-7.987-2.323-11.195,1.992
					c-1.593,2.146-3.252,11.77-2.898,17.124c0.354,5.355,0.022,13.563,0.022,18.851C399.46,185.639,398.133,197.012,398.133,197.012
					z"/>
				<path style="fill:#DEDEDE;" d="M410.125,205.132c0,0,7.323-1.594,8.673-2.08h0.022c1.349-0.532,1.836-3.098,4.668-4.89
					c2.854-1.792,3.607-3.164,3.607-3.164s1.261,2.146,1.704,5.443c1.46-0.995,2.301-1.881,2.301-1.881s-3.938-11.593-0.752-24.758
					c0.354-1.482,0.686-2.854,0.951-4.115c-2.522-4.691-5.465-8.187-8.651-8.231c0,0-0.022,5.609,1.085,12.158
					c1.106,6.549,0.309,9.68,0.309,9.68l-12.147,19.05L410.125,205.132z"/>
				<path style="fill:#FFADB7;" d="M408.731,145.105c0.022,2.168-0.111,2.987,0.31,3.651c0.421,0.642,3.629,1.239,5.266,0.642
					c0.598-0.221,1.151-0.443,1.637-0.686c2.743-1.372,4.027-3.009,4.336-3.651c0.376-0.752-0.066-1.349-0.066-1.349
					s-1.637-1.439-2.013-5.244c-0.022-0.287,0.133-4.845,0.199-6.438c0.022-0.354,0.022-0.553,0.022-0.553s-1.416-2.81-2.743-2.655
					c-0.708,0.088-2.81,2.035-4.602,3.828c-1.549,1.527-2.876,2.921-2.876,2.921s0.42,5.996,0.509,8.762
					C408.731,144.641,408.731,144.885,408.731,145.105z"/>
				
					<linearGradient id="SVGID_00000024682409525768779830000004635446697342839444_" gradientUnits="userSpaceOnUse" x1="8646.2529" y1="139.8133" x2="8653.1973" y2="148.6044" gradientTransform="matrix(-1 0 0 1 9060.9346 0)">
					<stop  offset="0.1224" style="stop-color:#FCA4B5"/>
					<stop  offset="0.9896" style="stop-color:#FFADB7"/>
				</linearGradient>
				<path style="fill:url(#SVGID_00000024682409525768779830000004635446697342839444_);" d="M408.2,135.57
					c0,0,0.42,5.996,0.509,8.762c0.288,0.11,0.708,0.133,1.261,0.044c2.39-0.376,4.713-2.788,5.797-2.08
					c1.084,0.664,2.036,4.16,0.177,6.417c2.743-1.372,4.027-3.009,4.336-3.651c0.376-0.752-0.066-1.349-0.066-1.349
					s-1.637-1.439-2.013-5.244c-0.022-0.287,0.133-4.845,0.199-6.438c-2.854,0.442-5.332,0.509-7.323,0.62
					C409.527,134.176,408.2,135.57,408.2,135.57z"/>
				<path style="fill:#FEBFBF;" d="M417.054,131.294c0,0-0.3,6.736-0.96,8.161c-0.66,1.425-5.413,5.09-9.997,4.455
					c-1.23-0.655-3.122-4.046-3.338-7.044c-0.216-2.997,0.026-4.101-0.041-4.364c-0.067-0.263-0.987-2.094-0.844-2.936
					c0.142-0.842,0.384-5.577,2.018-7.647c1.635-2.07,6.151-3.345,10.204-1.711S417.054,131.294,417.054,131.294z"/>
				<path style="fill:#754554;" d="M415.618,133.676c0,0-0.388-2.663,1.284-3.134c1.672-0.472,1.05,3.27,1.05,3.27l0.202,3.992
					l0.057,0.673c0,0,1.619-3.447,2.187-4.497c0.568-1.049,0.836-1.479,1.061-2.641c0.224-1.163,1.123-6.15,0.887-7.894
					c-0.236-1.743-3.227-4.372-5.513-4.562c-1.047-1.406-3.192-2.103-5.256-2.117c-2.064-0.014-3.599,0.146-6.076,2.073
					c-2.476,1.928-2.564,3.45-2.756,3.921c-0.191,0.47-0.205,2.403-0.205,2.403l0.272-1.004c0,0,0.982,0.649,4.043,0.384
					c3.061-0.265,4.748-1.488,4.748-1.488s-0.562,2.167-0.446,2.969s0.59,3.284,0.59,3.284s1.573,0.936,2.098,1.304
					c0.524,0.368,0.771,1.219,0.771,1.219l0.199,2.128L415.618,133.676z"/>
				
					<linearGradient id="SVGID_00000026155992978086314430000013588504990164219036_" gradientUnits="userSpaceOnUse" x1="-5312.9819" y1="1245.1166" x2="-5309.6611" y2="1245.1166" gradientTransform="matrix(0.986 0.1666 -0.1666 0.986 5862.3711 -209.2212)">
					<stop  offset="0.1224" style="stop-color:#FEB9B8"/>
					<stop  offset="1" style="stop-color:#FFDEDE"/>
				</linearGradient>
				<path style="fill:url(#SVGID_00000026155992978086314430000013588504990164219036_);" d="M416.513,132.263
					c0,0,0.906-2.388,2.733-1.465c1.827,0.923-0.794,5.689-1.978,5.754c-1.184,0.065-0.964-1.154-0.964-1.154
					S417.579,133.393,416.513,132.263z"/>
			</g>
		</g>
		<polygon style="fill:#BFB5BF;" points="405.828,288.251 371.828,268.621 358.102,276.546 365.63,280.892 326.167,303.677 
			351.241,318.154 390.705,295.37 392.102,296.176 		"/>
		<g>
			<polygon style="fill:#5C6467;" points="412.347,204.767 402.642,207.822 403.697,211.018 413.387,207.973 			"/>
			<path style="fill:#FEBFBF;" d="M433.115,183.083c-0.452,2.297-1.497,4.275-3.981,7.234c-2.469,2.946-12.833,10.67-13.6,12.855
				c-0.766,2.199-0.294,4.712-0.697,5.561c-0.389,0.848-1.213,2.209-1.741,2.495c-0.093,0.046-0.199,0.092-0.333,0.126
				c-0.614,0.195-1.491,0.296-1.491,0.296l-1.335-0.092l-2.523,0.296c0,0-1.24-0.098-1.342-0.485
				c-0.101-0.375-0.055-1.042-0.055-1.042s-0.414,0.374-0.85,0.615l-0.013,0.014c-0.236,0.148-0.503,0.244-0.695,0.199
				c-0.536-0.134-0.349-0.945-0.086-1.624c0.263-0.679,1.091-3.75,1.463-4.163c0.359-0.399,5.712-4.156,7.056-6.209
				c1.357-2.067,12.792-16.728,12.792-16.728s1.066-3.187,0.298-5.265c-0.768-2.078-6.861-22.653,1.433-26.121
				c2.889-0.452,4.929,1.709,5.604,7.475C433.693,164.299,433.58,180.788,433.115,183.083z"/>
			<path style="fill:#FA9698;" d="M412.763,211.355c-0.614,0.195-1.491,0.296-1.491,0.296l-1.335-0.092l-2.523,0.296
				c0,0-1.24-0.098-1.342-0.485c-0.101-0.375-0.055-1.042-0.055-1.042s-0.414,0.374-0.85,0.615c0.385-0.428,0.712-0.906,0.712-0.906
				s0.193-0.974,0.485-1.356c0.292-0.382,1.336-1.428,1.336-1.428c0.325-0.017,0.719,1.795,0.719,1.795l-0.263,1.195l-1.148-0.401
				c0,0-0.088-0.647,0.02-0.897c0.122-0.251,0.798-1.087,0.798-1.087l-1.185,0.687c0,0-0.303,0.681-0.459,1.083
				c-0.141,0.415,0.123,1.813,0.123,1.813s0.294,0.161,1.144,0.075c0.837-0.085,2.795-0.541,2.795-0.541l0.405,0.209l1.361,0.077
				L412.763,211.355z"/>
			<path style="fill:#5C6467;" d="M407.789,207.296l-1.248,1.172c0,0-0.368,1.061-0.383,1.285c-0.015,0.224-0.007,0.494-0.007,0.494
				l2.089-0.657l0.081-0.531C408.321,209.059,408.239,207.56,407.789,207.296z"/>
			<polygon style="fill:#5C6467;" points="389.258,193.968 379.41,196.918 378.57,193.667 388.2,190.771 			"/>
			<g>
				<path style="fill:#5C6467;" d="M387.672,191.448c-0.167,0.74,0.152,1.759,0.712,2.277c0.56,0.518,1.15,0.338,1.317-0.402
					c0.167-0.74-0.152-1.759-0.712-2.277C388.429,190.528,387.839,190.708,387.672,191.448z"/>
				<path style="fill:#3B4549;" d="M378.208,192.729l0.87-0.268c0.01-0.003,0.02-0.006,0.03-0.009l0.047-0.014l0.005,0.008
					c0.366-0.082,0.794,0.051,1.214,0.439c0.891,0.823,1.398,2.443,1.132,3.619c-0.131,0.58-0.426,0.941-0.798,1.061v0.002
					l-0.013,0.004l-0.004,0.001l-0.868,0.27l-0.16-0.507c-0.084-0.058-0.168-0.116-0.251-0.193
					c-0.891-0.823-1.398-2.443-1.132-3.619c0.023-0.102,0.057-0.189,0.09-0.278L378.208,192.729z"/>
				<path style="fill:#5C6467;" d="M377.384,193.801c-0.266,1.176,0.241,2.796,1.132,3.619c0.891,0.823,1.828,0.537,2.094-0.639
					c0.266-1.176-0.241-2.796-1.132-3.619C378.588,192.34,377.65,192.626,377.384,193.801z"/>
				<path style="fill:#FFC536;" d="M377.983,194.354c-0.167,0.74,0.152,1.759,0.712,2.277c0.56,0.518,1.15,0.338,1.317-0.402
					c0.167-0.74-0.152-1.759-0.712-2.277C378.74,193.435,378.15,193.615,377.983,194.354z"/>
				<path style="fill:#3B4549;" d="M402.378,206.859l0.867-0.28c0.01-0.003,0.02-0.007,0.03-0.01l0.046-0.015l0.005,0.007
					c0.364-0.087,0.794,0.041,1.22,0.423c0.902,0.811,1.43,2.424,1.18,3.604c-0.123,0.581-0.414,0.946-0.783,1.072v0.002
					l-0.013,0.004l-0.004,0.001l-0.864,0.281l-0.167-0.505c-0.085-0.057-0.169-0.113-0.254-0.19c-0.902-0.811-1.43-2.424-1.18-3.603
					c0.022-0.103,0.055-0.19,0.087-0.279L402.378,206.859z"/>
				<path style="fill:#5C6467;" d="M401.568,207.941c-0.25,1.179,0.278,2.792,1.18,3.603c0.902,0.811,1.835,0.513,2.085-0.666
					c0.25-1.179-0.279-2.792-1.18-3.603C402.752,206.464,401.818,206.762,401.568,207.941z"/>
				<path style="fill:#FFC536;" d="M402.174,208.486c-0.157,0.742,0.175,1.757,0.742,2.267c0.567,0.51,1.155,0.322,1.312-0.419
					c0.157-0.742-0.175-1.757-0.742-2.267C402.918,207.557,402.331,207.744,402.174,208.486z"/>
			</g>
			<path style="fill:#3B4549;" d="M373.591,260.866c0,4.231-2.989,9.387-6.677,11.516c-3.688,2.129-6.677,0.425-6.677-3.807
				c0-4.231,2.989-9.387,6.677-11.516C370.601,254.93,373.591,256.635,373.591,260.866z"/>
			<polygon style="fill:#3B4549;" points="371.395,256.454 374.544,258.258 364.896,274.417 361.84,272.627 364.47,261.667 			"/>
			<g>
				<path style="fill:#5C6467;" d="M376.444,262.513c0,4.231-2.989,9.387-6.677,11.516c-3.687,2.129-6.677,0.425-6.677-3.807
					c0-4.231,2.989-9.387,6.677-11.516C373.455,256.578,376.444,258.282,376.444,262.513z"/>
				<path style="fill:#FFC536;" d="M373.968,263.944c0,2.662-1.88,5.905-4.2,7.244s-4.2,0.267-4.2-2.395
					c0-2.662,1.88-5.905,4.2-7.244C372.087,260.21,373.968,261.282,373.968,263.944z"/>
				<polygon style="fill:#FFF98B;" points="359.628,276.629 370.704,265.732 369.768,265.191 359.628,267.816 				"/>
			</g>
			<g>
				<polygon style="fill:#FFE25B;" points="360.564,277.169 370.704,268.086 370.704,265.732 360.564,268.357 				"/>
				<polygon style="fill:#FFC536;" points="327.009,278.36 352.641,293.159 352.641,294.485 327.009,279.686 				"/>
				<g>
					<path style="fill:#FFC536;" d="M360.582,276.289l6.944-67.94c0.467-5.458,1.698-6.752,3.673-8.237
						c1.688-1.478,4.066-2.546,5.752-3.069l2.254-0.701l-0.57-1.83l-2.254,0.701c-0.908,0.282-4.053,1.361-6.391,3.413
						c-2.556,1.921-3.887,3.857-4.371,9.545l-6.942,67.923L360.582,276.289z"/>
				</g>
			</g>
			<path style="fill:#DD9A36;" d="M361.953,250.816c-0.069-0.045-0.113-0.131-0.113-0.256c0-0.262,0.185-0.58,0.413-0.712
				c0.11-0.064,0.21-0.07,0.284-0.031l0.001-0.002l0.006,0.003l0.002,0.001l25.796,14.888l-0.535,1.025l-25.844-14.907l-0.002-0.001
				l-0.009-0.005L361.953,250.816z"/>
			<path style="fill:#DD9A36;" d="M365.005,225.443c-0.069-0.045-0.113-0.131-0.113-0.256c0-0.262,0.185-0.58,0.413-0.712
				c0.111-0.064,0.21-0.07,0.284-0.031l0.001-0.002l0.006,0.003l0.002,0.001l25.796,14.888l-0.535,1.025l-25.844-14.907
				l-0.001-0.001l-0.009-0.006L365.005,225.443z"/>
			<path style="fill:#DD9A36;" d="M369.282,266.85c-0.117-0.077-0.193-0.224-0.193-0.436c0-0.445,0.315-0.988,0.703-1.212
				c0.188-0.109,0.357-0.119,0.483-0.053l0.002-0.003l0.009,0.006l0.004,0.002l23.375,13.498l-0.912,1.746l-23.457-13.53
				l-0.004-0.002l-0.015-0.008L369.282,266.85z"/>
			<polygon style="fill:#FFF98B;" points="384.324,290.887 394.464,281.804 394.464,279.45 384.324,282.075 			"/>
			<polygon style="fill:#FFE25B;" points="352.641,293.159 385.26,290.102 359.628,275.303 327.009,278.36 			"/>
			<polygon style="fill:#DD9A36;" points="386.071,282.57 385.26,290.102 359.628,275.303 360.438,267.771 			"/>
			<g>
				<polygon style="fill:#FFE25B;" points="385.26,291.428 395.4,282.344 395.4,279.99 385.26,282.616 				"/>
				<polygon style="fill:#FFC536;" points="352.641,293.159 385.26,290.102 385.26,291.428 352.641,294.485 				"/>
				<g>
					<path style="fill:#FFC536;" d="M386.214,291.087l6.944-67.939l0.339-2.379c0.544-3.938,0.674-4.874,2.159-6.341
						c1.003-1.358,2.96-2.496,5.76-3.405l2.245-0.731l-0.592-1.824l-2.245,0.731c-3.234,1.051-5.46,2.392-6.618,3.983
						c-1.843,1.806-2.035,3.197-2.608,7.324l-0.341,2.405l-6.949,67.982L386.214,291.087z"/>
				</g>
			</g>
			<path style="fill:#3B4549;" d="M402.077,277.351c0,4.231-2.989,9.387-6.677,11.516c-3.687,2.129-6.677,0.425-6.677-3.807
				c0-4.231,2.989-9.387,6.677-11.516C399.088,271.415,402.077,273.119,402.077,277.351z"/>
			<polygon style="fill:#3B4549;" points="390.51,289.244 393.522,290.99 396.777,283.987 403.214,274.861 400,272.997 			"/>
			<path style="fill:#5C6467;" d="M404.931,278.998c0,4.231-2.989,9.387-6.677,11.516c-3.688,2.129-6.677,0.425-6.677-3.807
				c0-4.231,2.989-9.387,6.677-11.516C401.942,273.063,404.931,274.767,404.931,278.998z"/>
			<path style="fill:#FFC536;" d="M402.454,280.428c0,2.662-1.88,5.905-4.2,7.244c-2.32,1.339-4.2,0.267-4.2-2.395
				c0-2.662,1.88-5.905,4.2-7.244C400.574,276.694,402.454,277.767,402.454,280.428z"/>
			<path style="fill:#5C6467;" d="M399.28,282.261c0,0.65-0.459,1.442-1.026,1.769c-0.566,0.327-1.026,0.065-1.026-0.585
				c0-0.65,0.459-1.442,1.026-1.769C398.821,281.349,399.28,281.611,399.28,282.261z"/>
		</g>
		<g>
			<g>
				<polygon style="fill:#C99A6B;" points="357.648,291.71 335.33,278.825 337.527,254.758 359.845,267.643 				"/>
				<polygon style="fill:#AE835B;" points="357.648,291.71 382.221,289.373 384.417,265.306 359.845,267.643 				"/>
				<polygon style="fill:#87623F;" points="359.845,267.643 384.417,265.306 362.099,252.421 337.527,254.758 				"/>
				<polygon style="fill:#D9AF84;" points="348.662,273.289 344.076,270.642 345.509,259.367 350.095,262.014 				"/>
				<polygon style="fill:#EBCBAB;" points="350.095,262.014 374.667,259.677 370.081,257.029 345.509,259.367 				"/>
				<polygon style="fill:#D1A986;" points="347.972,260.789 372.544,258.452 372.286,258.302 347.714,260.64 				"/>
				<polygon style="fill:#87623F;" points="384.417,265.306 359.845,267.643 369.704,267.431 				"/>
			</g>
			<g>
				<polygon style="fill:#C99A6B;" points="359.901,267.071 337.584,254.185 339.78,230.119 362.098,243.004 				"/>
				<polygon style="fill:#AE835B;" points="359.901,267.071 384.474,264.733 386.671,240.667 362.098,243.004 				"/>
				<polygon style="fill:#E8B687;" points="362.098,243.004 386.671,240.667 364.353,227.781 339.78,230.119 				"/>
				<polygon style="fill:#D9AF84;" points="350.915,248.65 346.329,246.002 347.762,234.727 352.348,237.375 				"/>
				<polygon style="fill:#EBCBAB;" points="352.348,237.375 376.921,235.037 372.335,232.39 347.762,234.727 				"/>
				<polygon style="fill:#D1A986;" points="350.225,236.149 374.798,233.812 374.54,233.663 349.967,236 				"/>
				<polygon style="fill:#87623F;" points="386.671,240.667 362.098,243.004 371.958,242.791 				"/>
			</g>
		</g>
		<g>
			<path style="fill:#FFDC6E;" d="M427.967,170.823c-1.708,0.243-3.973,0.613-3.973,0.613s-1.471-5.95-1.361-9.29
				c0.11-3.34-0.044-9.254,4.367-11.226c4.411-1.972,5.88,4.765,6.029,6.06c0.15,1.295,0.9,12.751,0.9,12.751
				S431.751,170.284,427.967,170.823z"/>
		</g>
		<path style="fill:#FEC7C6;" d="M384.226,197.424c0,0,0.787-0.585,0.381-1.141c-0.406-0.556-1.027-1.567-1.027-1.567l0.069-1.862
			c0,0,1.722-0.395,2.027-1.817c0.306-1.422-0.906-2.996-1.692-2.807c-0.785,0.189-3.121,3.446-3.244,3.67
			c-0.123,0.224,0.975,3.302,0.975,3.302s0.897,1.438,1.106,1.671C383.03,197.106,383.568,197.879,384.226,197.424z"/>
		<path style="fill:#FECB4C;" d="M402.093,124.595l0.443,0.575c0,0,8.098,2.368,8.917,2.589c0.354,0.089,0.951,0.332,1.792,0.597
			c1.129,0.399,2.721,0.819,4.845,0.996c3.673,0.309,3.673,0.309,3.673,0.309s1.172-3.54,0.619-6.77
			c-0.42-2.456-3.186-4.624-6.461-5.686c-0.022-0.022-0.044-0.022-0.044-0.022c-1.018-0.332-2.08-0.575-3.119-0.686
			c-4.469-0.465-7.523,1.416-8.961,3.585C402.381,122.25,402.093,124.595,402.093,124.595z"/>
		<path style="fill:#FCF5E8;" d="M413.244,128.356c1.129,0.399,2.721,0.819,4.845,0.996c3.673,0.309,3.673,0.309,3.673,0.309
			s1.172-3.54,0.619-6.77c-0.42-2.456-3.186-4.624-6.461-5.686c0.354,0.177,3.275,1.637,3.252,4.403
			C419.129,124.396,417.404,127.737,413.244,128.356z"/>
		<path style="fill:#725E6D;" d="M413.353,128.41c0,0-6.452,5.55-8.671,3.313c-1.564-1.576-5.446-3.081-7.152-2.574
			c-1.706,0.507-1.706,0.507-1.706,0.507s-0.362-0.073-0.316-0.488c0.046-0.415,6.591-4.563,6.591-4.563
			S404.692,121.844,413.353,128.41z"/>
		<g>
			<g>
				<path style="fill:#87623F;" d="M360.618,269.292l0.015-0.168l6.182-0.625l-0.575,6.795l-0.015,0.168l-6.18,0.625
					L360.618,269.292z M366.37,268.953l-5.361,0.541l-0.519,6.14l5.358-0.541L366.37,268.953z"/>
			</g>
			<g>
				<polygon style="fill:#87623F;" points="362.628,274.764 363.99,274.615 364.21,271.18 362.848,271.329 				"/>
				<polygon style="fill:#87623F;" points="361.556,272.79 365.454,272.345 363.508,269.823 				"/>
			</g>
		</g>
		<g>
			<g>
				<path style="fill:#87623F;" d="M362.978,244.77l0.015-0.167l6.18-0.624l-0.573,6.794l-0.015,0.167l-6.179,0.626L362.978,244.77z
					 M368.727,244.431l-5.358,0.54l-0.518,6.14l5.358-0.541L368.727,244.431z"/>
			</g>
			<g>
				<polygon style="fill:#87623F;" points="364.987,250.242 366.349,250.093 366.569,246.658 365.207,246.807 				"/>
				<polygon style="fill:#87623F;" points="363.915,248.267 367.813,247.822 365.867,245.3 				"/>
			</g>
		</g>
	</g>
	<g>
		<polygon style="fill:#BECDD4;" points="216.755,285.285 171.078,258.917 298.896,185.049 344.572,211.417 		"/>
		<g>
			<g>
				<g>
					<polygon style="fill:#FFC536;" points="303.884,53.485 303.884,110.938 300.393,112.955 300.393,55.502 					"/>
					<polygon style="fill:#DD9A36;" points="300.393,55.502 300.393,112.955 297.564,111.321 297.564,53.868 					"/>
					<polygon style="fill:#FFE25B;" points="300.397,55.504 297.564,53.869 301.056,51.848 303.889,53.482 					"/>
				</g>
				<g>
					<polygon style="fill:#FFC536;" points="337.281,72.772 337.281,130.225 333.789,132.242 333.789,74.789 					"/>
					<polygon style="fill:#DD9A36;" points="333.789,74.789 333.789,132.242 330.961,130.608 330.961,73.155 					"/>
					<polygon style="fill:#FFE25B;" points="333.794,74.791 330.961,73.156 334.453,71.135 337.286,72.769 					"/>
				</g>
				<g>
					<polygon style="fill:#FFC536;" points="337.286,69.272 337.286,72.769 333.794,74.786 333.794,71.289 					"/>
					<polygon style="fill:#DD9A36;" points="333.794,71.289 333.794,74.786 297.564,53.869 297.564,50.372 					"/>
					<polygon style="fill:#FFE25B;" points="333.799,71.291 297.564,50.373 301.056,48.352 337.291,69.27 					"/>
				</g>
			</g>
			<g>
				<g>
					<g>
						<g>
							<polygon style="fill:#FFC536;" points="303.884,175.396 303.884,193.84 300.393,195.857 300.393,177.413 							"/>
							<polygon style="fill:#DD9A36;" points="300.393,177.413 300.393,195.857 297.564,194.223 297.564,175.779 							"/>
							<polygon style="fill:#FFE25B;" points="300.397,177.415 297.564,175.78 301.056,173.759 303.889,175.394 							"/>
						</g>
						<g>
							<polygon style="fill:#FFC536;" points="337.281,194.683 337.281,213.127 333.789,215.144 333.789,196.7 							"/>
							<polygon style="fill:#DD9A36;" points="333.789,196.7 333.789,215.144 330.961,213.51 330.961,195.066 							"/>
							<polygon style="fill:#FFE25B;" points="333.794,196.702 330.961,195.067 334.453,193.046 337.286,194.681 							"/>
						</g>
						<g>
							<polygon style="fill:#FFC536;" points="337.286,191.184 337.286,194.681 333.794,196.697 333.794,193.201 							"/>
							<polygon style="fill:#DD9A36;" points="333.794,193.201 333.794,196.697 297.564,175.78 297.564,172.283 							"/>
							<polygon style="fill:#FFE25B;" points="333.799,193.202 297.564,172.284 301.056,170.263 337.291,191.181 							"/>
						</g>
					</g>
					<g>
						<polygon style="fill:#FFC536;" points="333.799,193.202 333.799,196.7 218.832,263.137 218.832,259.64 						"/>
						<polygon style="fill:#DD9A36;" points="218.832,259.64 218.832,263.137 182.601,242.219 182.601,238.722 						"/>
						<polygon style="fill:#FFE25B;" points="218.837,259.642 182.602,238.723 297.569,172.282 333.804,193.2 						"/>
					</g>
					<g>
						<g>
							<polygon style="fill:#FFC536;" points="185.426,243.854 185.426,262.298 181.934,264.315 181.934,245.871 							"/>
							<polygon style="fill:#DD9A36;" points="181.934,245.871 181.934,264.315 179.105,262.681 179.105,244.237 							"/>
							<polygon style="fill:#FFE25B;" points="181.938,245.873 179.105,244.238 182.597,242.217 185.43,243.852 							"/>
						</g>
						<g>
							<polygon style="fill:#FFC536;" points="218.822,263.141 218.822,281.585 215.331,283.602 215.331,265.158 							"/>
							<polygon style="fill:#DD9A36;" points="215.331,265.158 215.331,283.602 212.502,281.968 212.502,263.524 							"/>
							<polygon style="fill:#FFE25B;" points="215.335,265.16 212.502,263.525 215.994,261.504 218.827,263.139 							"/>
						</g>
						<g>
							<polygon style="fill:#FFC536;" points="218.827,259.642 218.827,263.139 215.336,265.155 215.336,261.658 							"/>
							<polygon style="fill:#DD9A36;" points="215.336,261.658 215.336,265.155 179.105,244.238 179.105,240.741 							"/>
							<polygon style="fill:#FFE25B;" points="215.34,261.66 179.105,240.742 182.597,238.721 218.832,259.639 							"/>
						</g>
					</g>
				</g>
			</g>
			<g>
				<g>
					<polygon style="fill:#FFC536;" points="303.884,114.441 303.884,171.894 300.393,173.911 300.393,116.458 					"/>
					<polygon style="fill:#DD9A36;" points="300.393,116.458 300.393,173.911 297.564,172.277 297.564,114.824 					"/>
					<polygon style="fill:#FFE25B;" points="300.397,116.459 297.564,114.825 301.056,112.803 303.889,114.438 					"/>
				</g>
				<g>
					<polygon style="fill:#FFC536;" points="337.281,133.728 337.281,191.181 333.789,193.198 333.789,135.745 					"/>
					<polygon style="fill:#DD9A36;" points="333.789,135.745 333.789,193.198 330.961,191.564 330.961,134.111 					"/>
					<polygon style="fill:#FFE25B;" points="333.794,135.746 330.961,134.112 334.453,132.09 337.286,133.725 					"/>
				</g>
				<g>
					<polygon style="fill:#FFC536;" points="337.286,130.228 337.286,133.725 333.794,135.742 333.794,132.245 					"/>
					<polygon style="fill:#DD9A36;" points="333.794,132.245 333.794,135.742 297.564,114.825 297.564,111.327 					"/>
					<polygon style="fill:#FFE25B;" points="333.799,132.247 297.564,111.328 301.056,109.307 337.291,130.225 					"/>
				</g>
			</g>
			<g>
				<g>
					<polygon style="fill:#BECDD4;" points="296.234,204.793 274.27,192.112 296.234,179.431 303.527,204.793 					"/>
					<polygon style="fill:#C99A6B;" points="303.527,204.793 325.491,192.112 325.491,176.36 303.527,189.041 					"/>
					<polygon style="fill:#AE835B;" points="303.527,204.793 281.563,192.112 281.563,176.36 303.527,189.041 					"/>
					<polygon style="fill:#E8B687;" points="303.527,189.041 281.563,176.36 303.527,163.679 325.491,176.36 					"/>
					<polygon style="fill:#9C754E;" points="294.093,193.551 290.564,191.514 290.564,181.557 294.093,183.594 					"/>
					<polygon style="fill:#54493E;" points="294.093,183.594 316.057,170.913 312.528,168.876 290.564,181.557 					"/>
					<polygon style="fill:#87623F;" points="281.563,176.36 303.527,189.041 291.676,182.701 					"/>
				</g>
				<polygon style="fill:#D1A986;" points="292.461,182.652 314.425,169.971 314.182,169.831 292.218,182.512 				"/>
			</g>
			<g>
				<g>
					<polygon style="fill:#BECDD4;" points="267.659,221.291 245.695,208.61 267.659,195.929 274.952,221.291 					"/>
					<polygon style="fill:#C99A6B;" points="274.952,221.291 296.917,208.61 296.917,192.858 274.952,205.539 					"/>
					<polygon style="fill:#AE835B;" points="274.952,221.291 252.988,208.61 252.988,192.858 274.952,205.539 					"/>
					<polygon style="fill:#E8B687;" points="274.952,205.539 252.988,192.858 274.952,180.177 296.917,192.858 					"/>
					<polygon style="fill:#9C754E;" points="265.518,210.049 261.989,208.011 261.989,198.055 265.518,200.092 					"/>
					<polygon style="fill:#54493E;" points="265.518,200.092 287.482,187.411 283.953,185.374 261.989,198.055 					"/>
					<polygon style="fill:#87623F;" points="252.988,192.858 274.952,205.539 263.101,199.199 					"/>
				</g>
				<polygon style="fill:#D1A986;" points="263.886,199.15 285.85,186.469 285.607,186.329 263.643,199.01 				"/>
			</g>
			<g>
				<g>
					<polygon style="fill:#BECDD4;" points="239.084,237.788 217.12,225.107 239.084,212.426 246.377,237.788 					"/>
					<polygon style="fill:#C99A6B;" points="246.377,237.788 268.341,225.107 268.341,209.356 246.377,222.037 					"/>
					<polygon style="fill:#AE835B;" points="246.377,237.788 224.413,225.107 224.413,209.356 246.377,222.037 					"/>
					<polygon style="fill:#E8B687;" points="246.377,222.037 224.413,209.356 246.377,196.675 268.341,209.356 					"/>
					<polygon style="fill:#9C754E;" points="236.943,226.547 233.414,224.509 233.414,214.552 236.943,216.59 					"/>
					<polygon style="fill:#54493E;" points="236.943,216.59 258.907,203.909 255.378,201.871 233.414,214.552 					"/>
					<polygon style="fill:#87623F;" points="224.413,209.356 246.377,222.037 234.526,215.696 					"/>
				</g>
				<polygon style="fill:#D1A986;" points="235.311,215.648 257.275,202.967 257.032,202.826 235.068,215.507 				"/>
			</g>
			<g>
				<g>
					<polygon style="fill:#BECDD4;" points="210.509,254.286 188.545,241.605 210.509,228.924 217.802,254.286 					"/>
					<polygon style="fill:#C99A6B;" points="217.802,254.286 239.766,241.605 239.766,225.854 217.802,238.535 					"/>
					<polygon style="fill:#AE835B;" points="217.802,254.286 195.838,241.605 195.838,225.854 217.802,238.535 					"/>
					<polygon style="fill:#E8B687;" points="217.802,238.535 195.838,225.854 217.802,213.173 239.766,225.854 					"/>
					<polygon style="fill:#9C754E;" points="208.368,243.044 204.839,241.007 204.839,231.05 208.368,233.088 					"/>
					<polygon style="fill:#54493E;" points="208.368,233.088 230.332,220.407 226.803,218.369 204.839,231.05 					"/>
					<polygon style="fill:#87623F;" points="195.838,225.854 217.802,238.535 205.951,232.194 					"/>
				</g>
				<polygon style="fill:#D1A986;" points="206.736,232.145 228.7,219.464 228.457,219.324 206.493,232.005 				"/>
			</g>
			<g>
				<g>
					<polygon style="fill:#C99A6B;" points="303.527,188.227 325.491,175.546 325.491,159.794 303.527,172.475 					"/>
					<polygon style="fill:#AE835B;" points="303.527,188.227 281.563,175.546 281.563,159.794 303.527,172.475 					"/>
					<polygon style="fill:#E8B687;" points="303.527,172.475 281.563,159.794 303.527,147.113 325.491,159.794 					"/>
					<polygon style="fill:#9C754E;" points="294.093,176.985 290.564,174.948 290.564,164.991 294.093,167.029 					"/>
					<polygon style="fill:#54493E;" points="294.093,167.029 316.057,154.348 312.528,152.31 290.564,164.991 					"/>
					<polygon style="fill:#87623F;" points="281.563,159.794 303.527,172.475 291.676,166.135 					"/>
				</g>
				<polygon style="fill:#D1A986;" points="292.461,166.086 314.425,153.405 314.182,153.265 292.218,165.946 				"/>
			</g>
			<g>
				<g>
					<polygon style="fill:#C99A6B;" points="274.952,204.725 296.917,192.044 296.917,176.292 274.952,188.973 					"/>
					<polygon style="fill:#AE835B;" points="274.952,204.725 252.988,192.044 252.988,176.292 274.952,188.973 					"/>
					<polygon style="fill:#E8B687;" points="274.952,188.973 252.988,176.292 274.952,163.611 296.917,176.292 					"/>
					<polygon style="fill:#9C754E;" points="265.518,193.483 261.989,191.445 261.989,181.489 265.518,183.526 					"/>
					<polygon style="fill:#54493E;" points="265.518,183.526 287.482,170.845 283.953,168.808 261.989,181.489 					"/>
					<polygon style="fill:#87623F;" points="252.988,176.292 274.952,188.973 263.101,182.633 					"/>
				</g>
				<polygon style="fill:#D1A986;" points="263.886,182.584 285.85,169.903 285.607,169.763 263.643,182.444 				"/>
			</g>
			<g>
				<g>
					<polygon style="fill:#C99A6B;" points="246.377,221.223 268.341,208.542 268.341,192.79 246.377,205.471 					"/>
					<polygon style="fill:#AE835B;" points="246.377,221.223 224.413,208.542 224.413,192.79 246.377,205.471 					"/>
					<polygon style="fill:#E8B687;" points="246.377,205.471 224.413,192.79 246.377,180.109 268.341,192.79 					"/>
					<polygon style="fill:#9C754E;" points="236.943,209.981 233.414,207.943 233.414,197.986 236.943,200.024 					"/>
					<polygon style="fill:#54493E;" points="236.943,200.024 258.907,187.343 255.378,185.305 233.414,197.986 					"/>
					<polygon style="fill:#87623F;" points="224.413,192.79 246.377,205.471 234.526,199.13 					"/>
				</g>
				<polygon style="fill:#D1A986;" points="235.311,199.082 257.275,186.401 257.032,186.26 235.068,198.941 				"/>
			</g>
			<g>
				<g>
					<polygon style="fill:#C99A6B;" points="217.802,237.72 239.766,225.039 239.766,209.288 217.802,221.969 					"/>
					<polygon style="fill:#AE835B;" points="217.802,237.72 195.838,225.039 195.838,209.288 217.802,221.969 					"/>
					<polygon style="fill:#E8B687;" points="217.802,221.969 195.838,209.288 217.802,196.607 239.766,209.288 					"/>
					<polygon style="fill:#9C754E;" points="208.368,226.479 204.839,224.441 204.839,214.484 208.368,216.522 					"/>
					<polygon style="fill:#54493E;" points="208.368,216.522 230.332,203.841 226.803,201.803 204.839,214.484 					"/>
					<polygon style="fill:#87623F;" points="195.838,209.288 217.802,221.969 205.951,215.628 					"/>
				</g>
				<polygon style="fill:#D1A986;" points="206.736,215.579 228.7,202.898 228.457,202.758 206.493,215.439 				"/>
			</g>
			<g>
				<g>
					<polygon style="fill:#FFC536;" points="333.799,132.247 333.799,135.744 218.832,202.181 218.832,198.684 					"/>
					<polygon style="fill:#DD9A36;" points="218.832,198.684 218.832,202.181 182.601,181.264 182.601,177.766 					"/>
					<polygon style="fill:#FFE25B;" points="218.837,198.686 182.602,177.768 297.569,111.326 333.804,132.244 					"/>
				</g>
				<g>
					<g>
						<polygon style="fill:#FFC536;" points="185.426,182.898 185.426,240.352 181.934,242.369 181.934,184.915 						"/>
						<polygon style="fill:#DD9A36;" points="181.934,184.915 181.934,242.369 179.105,240.735 179.105,183.281 						"/>
						<polygon style="fill:#FFE25B;" points="181.938,184.917 179.105,183.282 182.597,181.261 185.43,182.896 						"/>
					</g>
					<g>
						<polygon style="fill:#FFC536;" points="218.822,202.186 218.822,259.639 215.331,261.656 215.331,204.202 						"/>
						<polygon style="fill:#DD9A36;" points="215.331,204.202 215.331,261.656 212.502,260.022 212.502,202.568 						"/>
						<polygon style="fill:#FFE25B;" points="215.335,204.204 212.502,202.569 215.994,200.548 218.827,202.183 						"/>
					</g>
					<g>
						<polygon style="fill:#FFC536;" points="218.827,198.686 218.827,202.183 215.336,204.2 215.336,200.703 						"/>
						<polygon style="fill:#DD9A36;" points="215.336,200.703 215.336,204.2 179.105,183.282 179.105,179.785 						"/>
						<polygon style="fill:#FFE25B;" points="215.34,200.704 179.105,179.786 182.597,177.765 218.832,198.683 						"/>
					</g>
				</g>
			</g>
			<g>
				<g>
					<polygon style="fill:#BECDD4;" points="296.234,142.604 274.27,129.923 296.234,117.242 303.527,142.604 					"/>
					<polygon style="fill:#C99A6B;" points="303.527,142.604 325.491,129.923 325.491,114.171 303.527,126.852 					"/>
					<polygon style="fill:#AE835B;" points="303.527,142.604 281.563,129.923 281.563,114.171 303.527,126.852 					"/>
					<polygon style="fill:#E8B687;" points="303.527,126.852 281.563,114.171 303.527,101.49 325.491,114.171 					"/>
					<polygon style="fill:#9C754E;" points="294.093,131.362 290.564,129.325 290.564,119.368 294.093,121.405 					"/>
					<polygon style="fill:#54493E;" points="294.093,121.405 316.057,108.724 312.528,106.687 290.564,119.368 					"/>
					<polygon style="fill:#87623F;" points="281.563,114.171 303.527,126.852 291.676,120.512 					"/>
				</g>
				<polygon style="fill:#D1A986;" points="292.461,120.463 314.425,107.782 314.182,107.642 292.218,120.323 				"/>
			</g>
			<g>
				<g>
					<polygon style="fill:#BECDD4;" points="267.659,159.102 245.695,146.421 267.659,133.74 274.952,159.102 					"/>
					<polygon style="fill:#C99A6B;" points="274.952,159.102 296.917,146.421 296.917,130.669 274.952,143.35 					"/>
					<polygon style="fill:#AE835B;" points="274.952,159.102 252.988,146.421 252.988,130.669 274.952,143.35 					"/>
					<polygon style="fill:#E8B687;" points="274.952,143.35 252.988,130.669 274.952,117.988 296.917,130.669 					"/>
					<polygon style="fill:#9C754E;" points="265.518,147.86 261.989,145.822 261.989,135.866 265.518,137.903 					"/>
					<polygon style="fill:#54493E;" points="265.518,137.903 287.482,125.222 283.953,123.185 261.989,135.866 					"/>
					<polygon style="fill:#87623F;" points="252.988,130.669 274.952,143.35 263.101,137.01 					"/>
				</g>
				<polygon style="fill:#D1A986;" points="263.886,136.961 285.85,124.28 285.607,124.14 263.643,136.821 				"/>
			</g>
			<g>
				<g>
					<polygon style="fill:#BECDD4;" points="210.509,192.097 188.545,179.416 210.509,166.735 217.802,192.097 					"/>
					<polygon style="fill:#C99A6B;" points="217.802,192.097 239.766,179.416 239.766,163.665 217.802,176.346 					"/>
					<polygon style="fill:#AE835B;" points="217.802,192.097 195.838,179.416 195.838,163.665 217.802,176.346 					"/>
					<polygon style="fill:#E8B687;" points="217.802,176.346 195.838,163.665 217.802,150.984 239.766,163.665 					"/>
					<polygon style="fill:#9C754E;" points="208.368,180.855 204.839,178.818 204.839,168.861 208.368,170.899 					"/>
					<polygon style="fill:#54493E;" points="208.368,170.899 230.332,158.218 226.803,156.18 204.839,168.861 					"/>
					<polygon style="fill:#87623F;" points="195.838,163.665 217.802,176.346 205.951,170.005 					"/>
				</g>
				<polygon style="fill:#D1A986;" points="206.736,169.956 228.7,157.275 228.457,157.135 206.493,169.816 				"/>
			</g>
			<g>
				<g>
					<polygon style="fill:#C99A6B;" points="303.527,126.038 325.491,113.357 325.491,97.605 303.527,110.286 					"/>
					<polygon style="fill:#AE835B;" points="303.527,126.038 281.563,113.357 281.563,97.605 303.527,110.286 					"/>
					<polygon style="fill:#E8B687;" points="303.527,110.286 281.563,97.605 303.527,84.924 325.491,97.605 					"/>
					<polygon style="fill:#9C754E;" points="294.093,114.796 290.564,112.759 290.564,102.802 294.093,104.84 					"/>
					<polygon style="fill:#54493E;" points="294.093,104.84 316.057,92.159 312.528,90.121 290.564,102.802 					"/>
					<polygon style="fill:#87623F;" points="281.563,97.605 303.527,110.286 291.676,103.946 					"/>
				</g>
				<polygon style="fill:#D1A986;" points="292.461,103.897 314.425,91.216 314.182,91.076 292.218,103.757 				"/>
			</g>
			<g>
				<g>
					<polygon style="fill:#C99A6B;" points="274.952,142.536 296.917,129.855 296.917,114.103 274.952,126.784 					"/>
					<polygon style="fill:#AE835B;" points="274.952,142.536 252.988,129.855 252.988,114.103 274.952,126.784 					"/>
					<polygon style="fill:#E8B687;" points="274.952,126.784 252.988,114.103 274.952,101.422 296.917,114.103 					"/>
					<polygon style="fill:#9C754E;" points="265.518,131.294 261.989,129.257 261.989,119.3 265.518,121.337 					"/>
					<polygon style="fill:#54493E;" points="265.518,121.337 287.482,108.656 283.953,106.619 261.989,119.3 					"/>
					<polygon style="fill:#87623F;" points="252.988,114.103 274.952,126.784 263.101,120.444 					"/>
				</g>
				<polygon style="fill:#D1A986;" points="263.886,120.395 285.85,107.714 285.607,107.574 263.643,120.255 				"/>
			</g>
			<g>
				<g>
					<polygon style="fill:#C99A6B;" points="217.802,175.531 239.766,162.85 239.766,147.099 217.802,159.78 					"/>
					<polygon style="fill:#AE835B;" points="217.802,175.531 195.838,162.85 195.838,147.099 217.802,159.78 					"/>
					<polygon style="fill:#E8B687;" points="217.802,159.78 195.838,147.099 217.802,134.418 239.766,147.099 					"/>
					<polygon style="fill:#9C754E;" points="208.368,164.29 204.839,162.252 204.839,152.295 208.368,154.333 					"/>
					<polygon style="fill:#54493E;" points="208.368,154.333 230.332,141.652 226.803,139.614 204.839,152.295 					"/>
					<polygon style="fill:#87623F;" points="195.838,147.099 217.802,159.78 205.951,153.439 					"/>
				</g>
				<polygon style="fill:#D1A986;" points="206.736,153.391 228.7,140.71 228.457,140.569 206.493,153.25 				"/>
			</g>
			<g>
				<g>
					<polygon style="fill:#FFC536;" points="333.799,71.291 333.799,74.788 218.832,141.225 218.832,137.728 					"/>
					<polygon style="fill:#DD9A36;" points="218.832,137.728 218.832,141.225 182.601,120.308 182.601,116.811 					"/>
					<polygon style="fill:#FFE25B;" points="218.837,137.73 182.602,116.812 297.569,50.37 333.804,71.288 					"/>
				</g>
				<g>
					<g>
						<polygon style="fill:#FFC536;" points="185.426,121.943 185.426,179.396 181.934,181.413 181.934,123.96 						"/>
						<polygon style="fill:#DD9A36;" points="181.934,123.96 181.934,181.413 179.105,179.779 179.105,122.326 						"/>
						<polygon style="fill:#FFE25B;" points="181.938,123.961 179.105,122.327 182.597,120.305 185.43,121.94 						"/>
					</g>
					<g>
						<polygon style="fill:#FFC536;" points="218.822,141.23 218.822,198.683 215.331,200.7 215.331,143.247 						"/>
						<polygon style="fill:#DD9A36;" points="215.331,143.247 215.331,200.7 212.502,199.066 212.502,141.613 						"/>
						<polygon style="fill:#FFE25B;" points="215.335,143.248 212.502,141.614 215.994,139.592 218.827,141.227 						"/>
					</g>
					<g>
						<polygon style="fill:#FFC536;" points="218.827,137.73 218.827,141.227 215.336,143.244 215.336,139.747 						"/>
						<polygon style="fill:#DD9A36;" points="215.336,139.747 215.336,143.244 179.105,122.327 179.105,118.829 						"/>
						<polygon style="fill:#FFE25B;" points="215.34,139.749 179.105,118.831 182.597,116.809 218.832,137.727 						"/>
					</g>
				</g>
			</g>
			<g>
				<g>
					<polygon style="fill:#BECDD4;" points="296.234,81.543 274.27,68.862 296.234,56.181 303.527,81.543 					"/>
					<polygon style="fill:#C99A6B;" points="303.527,81.543 325.491,68.862 325.491,53.111 303.527,65.792 					"/>
					<polygon style="fill:#AE835B;" points="303.527,81.543 281.563,68.862 281.563,53.111 303.527,65.792 					"/>
					<polygon style="fill:#E8B687;" points="303.527,65.792 281.563,53.111 303.527,40.43 325.491,53.111 					"/>
					<polygon style="fill:#9C754E;" points="294.093,70.301 290.564,68.264 290.564,58.307 294.093,60.345 					"/>
					<polygon style="fill:#54493E;" points="294.093,60.345 316.057,47.664 312.528,45.626 290.564,58.307 					"/>
					<polygon style="fill:#87623F;" points="281.563,53.111 303.527,65.792 291.676,59.451 					"/>
				</g>
				<polygon style="fill:#D1A986;" points="292.461,59.402 314.425,46.721 314.182,46.581 292.218,59.262 				"/>
			</g>
			<g>
				<g>
					<polygon style="fill:#BECDD4;" points="267.659,98.041 245.695,85.36 267.659,72.679 274.952,98.041 					"/>
					<polygon style="fill:#C99A6B;" points="274.952,98.041 296.917,85.36 296.917,69.608 274.952,82.289 					"/>
					<polygon style="fill:#AE835B;" points="274.952,98.041 252.988,85.36 252.988,69.608 274.952,82.289 					"/>
					<polygon style="fill:#E8B687;" points="274.952,82.289 252.988,69.608 274.952,56.927 296.917,69.608 					"/>
					<polygon style="fill:#9C754E;" points="265.518,86.799 261.989,84.762 261.989,74.805 265.518,76.842 					"/>
					<polygon style="fill:#54493E;" points="265.518,76.842 287.482,64.161 283.953,62.124 261.989,74.805 					"/>
					<polygon style="fill:#87623F;" points="252.988,69.608 274.952,82.289 263.101,75.949 					"/>
				</g>
				<polygon style="fill:#D1A986;" points="263.886,75.9 285.85,63.219 285.607,63.079 263.643,75.76 				"/>
			</g>
			<g>
				<g>
					<polygon style="fill:#BECDD4;" points="239.084,114.539 217.12,101.858 239.084,89.177 246.377,114.539 					"/>
					<polygon style="fill:#C99A6B;" points="246.377,114.539 268.341,101.858 268.341,86.106 246.377,98.787 					"/>
					<polygon style="fill:#AE835B;" points="246.377,114.539 224.413,101.858 224.413,86.106 246.377,98.787 					"/>
					<polygon style="fill:#E8B687;" points="246.377,98.787 224.413,86.106 246.377,73.425 268.341,86.106 					"/>
					<polygon style="fill:#9C754E;" points="236.943,103.297 233.414,101.259 233.414,91.303 236.943,93.34 					"/>
					<polygon style="fill:#54493E;" points="236.943,93.34 258.907,80.659 255.378,78.622 233.414,91.303 					"/>
					<polygon style="fill:#87623F;" points="224.413,86.106 246.377,98.787 234.526,92.447 					"/>
				</g>
				<polygon style="fill:#D1A986;" points="235.311,92.398 257.275,79.717 257.032,79.577 235.068,92.258 				"/>
			</g>
			<g>
				<g>
					<polygon style="fill:#BECDD4;" points="210.509,131.037 188.545,118.356 210.509,105.675 217.802,131.037 					"/>
					<polygon style="fill:#C99A6B;" points="217.802,131.037 239.766,118.356 239.766,102.604 217.802,115.285 					"/>
					<polygon style="fill:#AE835B;" points="217.802,131.037 195.838,118.356 195.838,102.604 217.802,115.285 					"/>
					<polygon style="fill:#E8B687;" points="217.802,115.285 195.838,102.604 217.802,89.923 239.766,102.604 					"/>
					<polygon style="fill:#9C754E;" points="208.368,119.795 204.839,117.757 204.839,107.8 208.368,109.838 					"/>
					<polygon style="fill:#54493E;" points="208.368,109.838 230.332,97.157 226.803,95.12 204.839,107.8 					"/>
					<polygon style="fill:#87623F;" points="195.838,102.604 217.802,115.285 205.951,108.945 					"/>
				</g>
				<polygon style="fill:#D1A986;" points="206.736,108.896 228.7,96.215 228.457,96.075 206.493,108.756 				"/>
			</g>
			<g>
				<g>
					<polygon style="fill:#C99A6B;" points="274.952,81.475 296.917,68.794 296.917,53.042 274.952,65.724 					"/>
					<polygon style="fill:#AE835B;" points="274.952,81.475 252.988,68.794 252.988,53.042 274.952,65.724 					"/>
					<polygon style="fill:#E8B687;" points="274.952,65.724 252.988,53.042 274.952,40.361 296.917,53.042 					"/>
					<polygon style="fill:#9C754E;" points="265.518,70.233 261.989,68.196 261.989,58.239 265.518,60.277 					"/>
					<polygon style="fill:#54493E;" points="265.518,60.277 287.482,47.596 283.953,45.558 261.989,58.239 					"/>
					<polygon style="fill:#87623F;" points="252.988,53.042 274.952,65.724 263.101,59.383 					"/>
				</g>
				<polygon style="fill:#D1A986;" points="263.886,59.334 285.85,46.653 285.607,46.513 263.643,59.194 				"/>
			</g>
		</g>
	</g>
	<g>
		<path style="fill:#BFB5BF;" d="M236.952,370.813l-52.085-30.071l-3.294,1.902l3.299-1.905l-10.025-5.788l-44.491,25.687
			l10.025,5.788l52.085,30.071l14.656,6.392l4.793-2.767l-11.071-8.461l-12.046-6.955l27.729-16.009l12.046,6.954l14.656,6.392
			l4.793-2.767L236.952,370.813z M165.409,371.2l-16.648-9.612l27.728-16.009l16.648,9.611L165.409,371.2z"/>
		<path style="fill:#BFB5BF;" d="M141.141,323.069c-1.092-0.63-2.268-1.179-3.487-1.678c-1.307-1.96-3.311-3.799-6.046-5.378
			c-10.525-6.077-27.642-6.046-38.233,0.069c-10.591,6.115-10.644,15.997-0.12,22.074c1.092,0.63,2.268,1.179,3.487,1.678
			c1.307,1.96,3.311,3.799,6.046,5.378c10.525,6.076,27.642,6.045,38.233-0.069C151.613,339.029,151.666,329.146,141.141,323.069z"
			/>
		<g>
			<g>
				<path style="fill:#FEBFBF;" d="M136.616,242.303c0,0-1.466,2.601-4.314,2.683h-0.145c-0.433,0.021-0.805,0-1.115-0.041
					c-1.692-0.165-1.919-0.867-2.188-1.734c-0.33-1.032-5.676-23.426-1.28-24.746c0.083,0,2.332,0.02,3.303,2.146
					c0.619,1.342,1.857,6.419,2.827,10.712c0.578,2.621,1.053,4.974,1.239,5.985c0.371,2.126,1.197,4.004,1.507,4.706
					c0.021-0.021,0.021-0.021,0.021,0C136.554,242.201,136.616,242.303,136.616,242.303z"/>
				
					<linearGradient id="SVGID_00000003092115103092426490000004602972032046305957_" gradientUnits="userSpaceOnUse" x1="-3166.5269" y1="239.6279" x2="-3148.7832" y2="262.0897" gradientTransform="matrix(1 0 0 1 3301.832 0)">
					<stop  offset="0.1224" style="stop-color:#FCA4B5"/>
					<stop  offset="0.9896" style="stop-color:#FFADB7"/>
				</linearGradient>
				<path style="fill:url(#SVGID_00000003092115103092426490000004602972032046305957_);" d="M140.744,258.216
					c-0.082,0.186-0.103,0.475-0.062,0.764c-0.021-0.021-0.021-0.021-0.021-0.021c-0.021-0.083-0.557-1.589-3.571-4.107
					c-2.993-2.518-5.655-6.79-6.027-8.256l-0.021-1.651c-1.692-0.165-1.919-0.867-2.188-1.734c-0.33-1.032-5.676-23.426-1.28-24.746
					c0.083,0,2.332,0.02,3.303,2.146c0.619,1.342,1.857,6.419,2.827,10.712c-0.021,0.02-0.021,0.02-0.021,0.02
					c-0.144,0.537-2.663,1.404-2.663,1.404s0.475,7.905,0.454,8.483c-0.041,0.578,1.259,1.94,1.259,1.94s0,0-0.021,0.021
					c-0.124,0.144-0.661,0.784-0.557,1.795c0,0.247,0.062,0.537,0.186,0.846c0.64,1.651,4.541,7.307,5.8,9.164
					c1.259,1.879,2.848,2.766,2.848,2.766S140.992,257.762,140.744,258.216z"/>
				<path style="fill:#FFDC6E;" d="M133.711,230.793c0,0-1.894,1.293-3.521,0.728c-1.563-0.543-5.633-14.739-5.633-14.739
					s0.34-0.706,2.768-0.11c2.428,0.596,3.556,2.927,3.903,4.117C131.574,221.978,133.711,230.793,133.711,230.793z"/>
			</g>
			<g>
				<g>
					<path style="fill:#554D4E;" d="M130.293,328.534c0,0,3.276,1.504,3.915,2.048c0.639,0.543,4.705,3.947,4.977,4.474
						c0.271,0.527,1.545,1.589,1.56,2.759c0.015,1.17-1.414,2.271-2.617,2.24c-1.204-0.031-5.033-1.26-6.54-2.777
						c-1.507-1.517-2.417-2.588-2.692-2.671c-0.275-0.084-0.3,0.077-0.984,0.192c-0.684,0.116-3.453-1.162-3.788-1.913
						c-0.335-0.751-1.039-3.837-0.615-4.716C123.935,327.289,130.293,328.534,130.293,328.534z"/>
					<path style="fill:#FEBFBF;" d="M130.74,327.569c0,0,3.052,3.106,3.328,3.814c0.276,0.709-1.095,1.384-3.008,1.472
						c-1.913,0.089-4.284-1.915-4.284-1.915s-2.047-2.929-1.148-4.436C126.528,324.998,130.74,327.569,130.74,327.569z"/>
					<path style="fill:#7282B5;" d="M131.518,265.897c0,0,0.653-0.231,1.919,10.774c1.163,10.108,1.066,17.429,0.831,20.769
						c-0.235,3.34-2.067,29.542-2.087,30.865c-0.02,1.323-2.902,2.07-4.659,1.951c-1.757-0.12-3.33-1.709-3.377-2.604
						c-0.047-0.895-2.033-23.126-0.614-30.557c0.413-2.162-5.531-17.241-5.531-17.241s-1.207-11.253-0.222-13.646
						C118.765,263.814,131.518,265.897,131.518,265.897z"/>
					<path style="fill:#E8D0C8;" d="M127.598,330.24h-0.062c-1.775-0.103-3.344-1.693-3.385-2.601
						c-0.041-0.887-2.043-23.116-0.619-30.546c0.413-2.168-5.524-17.252-5.524-17.252s-0.041-0.475-0.124-1.238l5.772-1.221
						c0,0-1.156,2.064,0.083,6.109c1.259,4.025,1.362,12.322,1.528,13.519c0.165,1.197-1.383,1.651-0.949,10.588
						C124.667,314.905,124.502,325.988,127.598,330.24z"/>
					<path style="fill:#554D4E;" d="M103.821,321.076c0,0,2.203,3.171,2.475,3.698c0.271,0.527,3.379,5.656,3.494,6.34
						s-0.045,1.277-0.535,1.767c-0.49,0.491-2.381,1.175-3.691,0.823s-3.348-1.466-4.423-2.587
						c-1.075-1.121-2.332-4.243-2.332-4.243s-1.314-1.471-1.672-2.193c-0.358-0.721-1.247-1.665-1.342-2.691
						s-0.206-1.685,0.755-2.472C97.51,318.729,103.821,321.076,103.821,321.076z"/>
					<path style="fill:#FEBFBF;" d="M103.916,320.315c0,0,1.33,3.487,1.361,4.133c0.031,0.646-1.53,1.279-3.011,1.089
						c-1.481-0.19-2.07-1.562-2.515-1.978c-0.445-0.416-2.352-3.576-1.894-4.565C98.315,318.004,103.916,320.315,103.916,320.315z"
						/>
					<path style="fill:#7282B5;" d="M123.978,267.459c0,0,0.394,4.797,0.499,6.655c0.106,1.858,0.183,4.441,0.183,4.441
						l-3.453,4.439c0,0-2.13,1.943-5.388,18.074c-2.636,5.16-11.013,20.152-11.013,20.152s-2.396,2.479-5.212,1.124
						c-2.458-1.183-3.359-3.149-3.341-3.534c0.048-1.082,5.446-14.507,6.162-16.435c0.716-1.927,3.471-6.648,3.471-6.648
						s0.013-7.166-0.201-9.558c-0.393-4.38-4.202-15.262-2.9-17.427C104.086,266.576,123.978,267.459,123.978,267.459z"/>
					<g>
						<path style="fill:#A0ABCD;" d="M97.569,320.315l-0.496-0.145c4.098-14.038,7.206-18.099,9.064-20.525
							c0.617-0.807,1.064-1.391,1.334-2.089c2.344-6.099-0.659-17.156-1.286-19.31c-1.461-5.032-0.808-8.371-0.778-8.51l0.504,0.103
							c-0.006,0.033-0.653,3.364,0.77,8.264c0.635,2.182,3.676,13.386,1.27,19.639c-0.294,0.768-0.76,1.376-1.405,2.217
							C104.71,302.356,101.638,306.369,97.569,320.315z"/>
					</g>
					<path style="fill:#E8D0C8;" d="M107.027,296.807c-2.642,2.786-5.098,9.494-6.976,14.138c-1.548,3.839-2.828,6.687-2.952,9.453
						c-0.599-0.743-0.867-1.383-0.846-1.589c0.041-1.094,5.449-14.51,6.171-16.45c0.702-1.92,3.467-6.646,3.467-6.646
						s0.021-7.161-0.206-9.556c-0.392-4.376-4.19-15.252-2.889-17.42c0.186-0.309,0.805-0.557,1.755-0.743
						c0,0.062,0.021,0.124,0.021,0.186c0,0-0.95,0.454,0.495,6.708C106.511,281.142,108.368,291.399,107.027,296.807z"/>
					<path style="fill:#FDD249;" d="M101.604,268.367c0,0,3.294,3.553,8.221,4.045c10.326,1.032,21.258-3.885,22.518-5.488
						c0,0-1.23-10.616-1.229-15.549c0-4.933-0.321-12.59,0.017-17.58c0.338-4.99,0.501-10.809-2.843-15.864
						c-2.002-3.026-8.568-0.271-10.55-0.492c-1.983-0.221-4.689-1.848-7.499,0.434c-2.81,2.281-8.264,4.391-9.425,7.616
						c-1.355,3.765-1.073,8.703,1.479,19.78C105.129,257.583,101.604,268.367,101.604,268.367z"/>
					<path style="fill:#DEDEDE;" d="M128.471,265.057c0,0,2.869,2.677,1.61,2.224l-2.91-0.64c-1.259-0.496-3.194,0.818-12.921-2.488
						c-2.977-1.012-8.354-4.122-8.354-4.122s-1.739,7.014-2.152,10.09c-1.362-0.929-2.146-1.755-2.146-1.755
						s3.674-10.815,0.702-23.096c-0.33-1.383-0.64-2.663-0.887-3.839c2.353-4.376,4.743-10.055,7.715-10.096
						c0,0,2.36,10.396,1.328,16.505c-1.032,6.109-2.274,6.284-2.274,6.284l11.001,6.328L128.471,265.057z"/>
					<path style="fill:#FFADB7;" d="M122.457,218.465c-0.021,2.001,0.495,2.848,0.021,3.591c-0.413,0.599-3.942,1.404-5.449,0.785
						c-0.516-0.207-0.991-0.433-1.404-0.64c0,0-0.021-0.021-0.041-0.021c-2.91-1.486-3.529-2.765-3.859-3.364
						c-0.372-0.681,0.021-1.259,0.021-1.259s2.188-2.889,1.961-5.346c-0.062-0.639-0.124-1.94-0.165-3.219
						c-0.062-1.631-0.124-3.199-0.124-3.199s1.342-2.621,2.559-2.477c1.218,0.165,6.976,6.295,6.976,6.295s-0.165,2.477-0.31,4.891
						c-0.082,1.362-0.144,2.704-0.165,3.571C122.457,218.217,122.457,218.341,122.457,218.465z"/>
					
						<linearGradient id="SVGID_00000059305535910261387200000000844594890907021213_" gradientUnits="userSpaceOnUse" x1="-3184.7903" y1="214.8964" x2="-3179.1736" y2="222.0064" gradientTransform="matrix(1 0 0 1 3301.832 0)">
						<stop  offset="0.1224" style="stop-color:#FCA4B5"/>
						<stop  offset="0.9896" style="stop-color:#FFADB7"/>
					</linearGradient>
					<path style="fill:url(#SVGID_00000059305535910261387200000000844594890907021213_);" d="M122.643,214.502
						c-0.082,1.362-0.144,2.704-0.165,3.571c-0.413,0.021-1.032-0.103-1.878-0.433c-3.756-1.486-4.706-1.238-5.882-0.392
						c-1.053,0.784-0.681,3.467,0.867,4.933c-2.91-1.486-3.529-2.765-3.859-3.364c-0.372-0.681,0.021-1.259,0.021-1.259
						s2.188-2.889,1.961-5.346c-0.062-0.639-0.124-1.94-0.165-3.219c4.355-0.97,7.079-0.393,7.079-0.393L122.643,214.502z"/>
					<path style="fill:#FEBFBF;" d="M114.698,205.621c0,0,0.28,6.284,0.896,7.613c0.615,1.329,5.049,4.748,9.326,4.156
						c1.147-0.611,2.912-3.775,3.114-6.57c0.202-2.796-0.025-3.826,0.038-4.071c0.063-0.245,0.921-1.953,0.788-2.739
						c-0.133-0.785-0.358-5.202-1.883-7.133s-5.738-3.121-9.519-1.596C113.677,196.806,114.698,205.621,114.698,205.621z"/>
					<path style="fill:#754554;" d="M116.038,207.844c0,0,0.362-2.484-1.197-2.924c-1.559-0.44-1.446,2.31-1.446,2.31l0.372,4.353
						l-0.053,0.628c0,0-1.604-3.104-2.134-4.083c-0.53-0.979-0.78-1.379-0.99-2.464c-0.209-1.085-1.048-5.737-0.827-7.364
						c0.22-1.626,3.011-4.078,5.143-4.256c0.977-1.311,2.967-1.751,4.893-1.764c1.926-0.013,3.368-0.075,5.678,1.723
						c2.31,1.798,2.262,3.205,2.44,3.643s0.353,2.388,0.353,2.388l-0.286-1.069c0,0-0.916,0.605-3.771,0.358
						c-2.855-0.247-4.429-1.388-4.429-1.388s0.524,2.022,0.416,2.77c-0.108,0.748-0.551,3.063-0.551,3.063s-1.468,0.873-1.957,1.216
						c-0.489,0.343-0.72,1.138-0.72,1.138l-0.186,1.985L116.038,207.844z"/>
					<path style="fill:#FECB4C;" d="M128.711,199.745l-0.413,0.516c0,0-7.554,2.229-8.318,2.415
						c-0.351,0.083-0.929,0.351-1.775,0.619c-1.053,0.351-2.497,0.723-4.417,0.867c-3.426,0.289-3.426,0.289-3.426,0.289
						s-1.094-3.282-0.578-6.295c0.413-2.394,3.178-4.479,6.398-5.449c0,0,0.021,0,0.021-0.021c0.826-0.247,1.693-0.433,2.559-0.516
						c4.19-0.433,7.017,1.342,8.359,3.365C128.443,197.557,128.711,199.745,128.711,199.745z"/>
					<path style="fill:#FCF5E8;" d="M118.205,203.295c-1.053,0.351-2.497,0.723-4.417,0.867c-3.426,0.289-3.426,0.289-3.426,0.289
						s-1.094-3.282-0.578-6.295c0.413-2.394,3.178-4.479,6.398-5.449c-0.846,0.495-3.323,1.115-2.642,5.924
						C114.098,202.572,117.132,203.191,118.205,203.295z"/>
					<path style="fill:#725E6D;" d="M118.209,203.291c0,0,6.019,5.177,8.089,3.091c1.459-1.47,5.08-2.874,6.671-2.401
						c1.591,0.473,1.591,0.473,1.591,0.473s0.337-0.068,0.294-0.455c-0.043-0.387-6.149-4.257-6.149-4.257
						S126.288,197.166,118.209,203.291z"/>
					
						<linearGradient id="SVGID_00000055701323333963611320000010798940152865692568_" gradientUnits="userSpaceOnUse" x1="6365.3721" y1="-652.8774" x2="6368.4702" y2="-652.8774" gradientTransform="matrix(-0.986 0.1666 0.1666 0.986 6500.3955 -209.2212)">
						<stop  offset="0.1224" style="stop-color:#FEB9B8"/>
						<stop  offset="1" style="stop-color:#FFDEDE"/>
					</linearGradient>
					<path style="fill:url(#SVGID_00000055701323333963611320000010798940152865692568_);" d="M115.203,206.526
						c0,0-0.845-2.228-2.55-1.367c-1.704,0.861,0.741,5.307,1.845,5.368c1.104,0.061,0.899-1.077,0.899-1.077
						S114.208,207.58,115.203,206.526z"/>
				</g>
			</g>
			<g>
				<path style="fill:#FEBFBF;" d="M103.205,256.294c0,0-1.344-2.743-1.888-8.008c-0.544-5.264-2.083-21.705,0.273-23.953
					c2.356-2.248,5.553,0.027,6.641,2.334c1.088,2.307,1.69,14.031,1.468,18.01c-0.222,3.979,0.038,6.742-0.979,8.718
					C107.702,255.372,106.298,256.668,103.205,256.294z"/>
			</g>
		</g>
		<path style="fill:#FFDC6E;" d="M103.381,223.192c-1.164,0-3.493,1.299-3.493,5.634c0,5.047,0.528,9.759,0.591,11.436
			c1.32,0.654,3.544,0.792,5.608,0.686c2.064-0.106,3.961-0.626,3.961-0.916c0-0.29-0.38-8.726-1.25-12.08
			C107.927,224.598,104.962,223.192,103.381,223.192z"/>
		<g>
			<polygon style="fill:#A25900;" points="168.702,330.07 172.472,332.247 172.472,338.522 168.702,336.345 			"/>
			<g>
				<g>
					<path style="fill:#3B4549;" d="M160.293,332.285c0-2.627-1.856-5.828-4.146-7.151c-1.093-0.631-2.08-0.706-2.82-0.34
						l-0.01-0.012l-0.074,0.043c-0.017,0.009-0.034,0.019-0.05,0.029l-1.846,1.064l0.695,1.148c-0.013,0.145-0.04,0.276-0.04,0.432
						c0,2.627,1.856,5.829,4.145,7.15c0.231,0.133,0.453,0.225,0.674,0.311l0.578,0.954l1.664-0.96
						c0.01-0.006,0.019-0.011,0.029-0.017l0.079-0.046l0.001-0.02C159.862,334.421,160.293,333.538,160.293,332.285z"/>
					<path style="fill:#5C6467;" d="M150.23,328.522c0,2.627,1.856,5.828,4.145,7.15c2.29,1.322,4.146,0.264,4.146-2.363
						s-1.856-5.829-4.146-7.15C152.086,324.836,150.23,325.894,150.23,328.522z"/>
					<path style="fill:#3B4549;" d="M157.809,333.719c0-2.627-1.856-5.829-4.146-7.151c-1.093-0.631-2.08-0.706-2.82-0.34
						l-0.01-0.012l-0.074,0.043c-0.017,0.009-0.034,0.019-0.05,0.029l-1.846,1.064l0.695,1.148c-0.013,0.145-0.04,0.276-0.04,0.432
						c0,2.627,1.856,5.829,4.145,7.15c0.231,0.133,0.453,0.225,0.674,0.311l0.578,0.954l1.664-0.96
						c0.01-0.006,0.019-0.011,0.029-0.017l0.079-0.046l0.001-0.02C157.378,335.854,157.809,334.972,157.809,333.719z"/>
					<path style="fill:#5C6467;" d="M147.746,329.955c0,2.627,1.856,5.828,4.146,7.15c2.29,1.322,4.145,0.264,4.145-2.363
						c0-2.627-1.856-5.829-4.145-7.15C149.602,326.27,147.746,327.328,147.746,329.955z"/>
				</g>
				<polygon style="fill:#CE7400;" points="157.163,338.792 157.163,342.9 154.985,344.157 148.987,329.035 153.16,329.926 				"/>
				<polygon style="fill:#EDA600;" points="154.985,340.049 154.985,344.157 146.81,338.171 146.81,330.292 150.983,331.183 				"/>
				<polygon style="fill:#EDA600;" points="146.511,333.737 156.847,327.769 156.847,326.608 142.048,329.999 142.048,331.16 				
					"/>
				<polygon style="fill:#FECB4C;" points="146.511,332.576 156.847,326.608 152.385,324.032 142.048,329.999 				"/>
				<g>
					<path style="fill:#3B4549;" d="M148.54,339.087c0-2.627-1.856-5.828-4.146-7.151c-1.093-0.631-2.08-0.706-2.82-0.34
						l-0.01-0.012l-0.074,0.043c-0.017,0.009-0.034,0.019-0.05,0.029l-1.846,1.064l0.695,1.148c-0.013,0.145-0.04,0.276-0.04,0.432
						c0,2.627,1.856,5.829,4.146,7.15c0.231,0.133,0.453,0.225,0.674,0.311l0.578,0.954l1.664-0.96
						c0.01-0.006,0.02-0.011,0.029-0.017l0.079-0.046l0.001-0.02C148.109,341.223,148.54,340.34,148.54,339.087z"/>
					<path style="fill:#5C6467;" d="M138.477,335.323c0,2.627,1.856,5.828,4.145,7.15c2.29,1.322,4.146,0.264,4.146-2.363
						s-1.856-5.829-4.146-7.15C140.333,331.638,138.477,332.696,138.477,335.323z"/>
					<path style="fill:#3B4549;" d="M146.056,340.521c0-2.627-1.856-5.829-4.145-7.151c-1.093-0.631-2.08-0.706-2.82-0.34
						l-0.01-0.012l-0.074,0.043c-0.017,0.009-0.034,0.019-0.05,0.029l-1.846,1.064l0.695,1.148c-0.013,0.145-0.04,0.276-0.04,0.432
						c0,2.627,1.856,5.829,4.146,7.15c0.231,0.133,0.453,0.225,0.674,0.311l0.578,0.954l1.664-0.96
						c0.01-0.006,0.02-0.011,0.029-0.017l0.079-0.046l0.001-0.02C145.626,342.656,146.056,341.773,146.056,340.521z"/>
					<path style="fill:#5C6467;" d="M135.993,336.757c0,2.627,1.856,5.829,4.146,7.15c2.29,1.322,4.146,0.264,4.146-2.363
						s-1.856-5.829-4.146-7.15C137.849,333.071,135.993,334.13,135.993,336.757z"/>
				</g>
				<polygon style="fill:#CE7400;" points="156.847,326.608 156.847,327.769 146.511,333.737 146.511,332.576 				"/>
			</g>
			<g>
				
					<rect x="146.483" y="284.518" transform="matrix(0.9849 -0.1729 0.1729 0.9849 -50.9539 30.1389)" style="fill:#FFC536;" width="2.145" height="46.172"/>
			</g>
			<g>
				<path style="fill:#554D4E;" d="M138.894,288.556c-1.304,0-2.475-0.449-3.33-1.342l-4.706-4.914
					c-0.617-0.642-1.032-1.493-1.201-2.457l-0.853-4.901c-0.556-3.198,1.663-7.235,5.055-9.193l10.751-6.207
					c1.983-1.146,4.041-1.374,5.646-0.621c1.3,0.608,2.163,1.786,2.429,3.317l0.853,4.899c0.157,0.897,0.105,1.868-0.157,2.886
					l-2.294,8.956c-0.661,2.591-2.57,5.065-4.981,6.458l-3.549,2.049C141.317,288.202,140.053,288.556,138.894,288.556z
					 M148.21,261.211c-0.665,0-1.447,0.237-2.237,0.693l-10.751,6.207c-2.382,1.376-4.092,4.29-3.733,6.363l0.853,4.899
					c0.077,0.434,0.24,0.785,0.484,1.039l4.708,4.916c0.703,0.735,2.173,0.652,3.66-0.205l3.549-2.049
					c1.768-1.022,3.223-2.895,3.703-4.772l2.294-8.958c0.161-0.632,0.202-1.232,0.113-1.738L150,262.705
					c-0.113-0.646-0.415-1.089-0.899-1.314C148.843,261.27,148.541,261.211,148.21,261.211z"/>
			</g>
			<path style="fill:#FECB4C;" d="M153.018,314.924c0.976-1.637,2.276-2.987,3.628-3.767c1.352-0.781,2.652-0.932,3.628-0.422
				l3.77,2.177l-0.318,0.184l15.739,10.763v5.777l-45.637,26.348v-5.777L153.018,314.924z"/>
			<path style="fill:#ED9600;" d="M137.6,352.385v6.274l10.633-6.138l0.107-4.502l24.132-13.941v4.445l10.762-6.21v-6.274
				l-19.194-13.127c-0.972-0.507-2.272-0.357-3.623,0.422c-1.351,0.779-2.651,2.13-3.63,3.766L137.6,352.385z"/>
			<g>
				<polygon style="fill:#EDA600;" points="228.071,368.122 236.666,363.16 174.638,334.771 174.638,337.273 				"/>
				<polygon style="fill:#EDA600;" points="228.071,368.122 236.666,363.16 248.023,371.84 243.106,374.679 				"/>
			</g>
			<g>
				<polygon style="fill:#EDA600;" points="191.03,389.508 199.625,384.546 137.597,356.157 137.597,358.659 				"/>
				<polygon style="fill:#EDA600;" points="191.03,389.508 199.625,384.546 210.982,393.226 206.065,396.065 				"/>
			</g>
			<g>
				<polygon style="fill:#FECB4C;" points="228.071,365.62 236.666,360.658 183.233,329.809 174.638,334.771 				"/>
				<polygon style="fill:#FECB4C;" points="228.071,365.62 236.666,360.658 248.023,369.339 243.106,372.177 				"/>
			</g>
			<g>
				<polygon style="fill:#FECB4C;" points="191.03,387.006 199.625,382.044 146.192,351.195 137.597,356.157 				"/>
				<polygon style="fill:#FECB4C;" points="191.03,387.006 199.625,382.044 210.982,390.725 206.065,393.563 				"/>
			</g>
			<polygon style="fill:#EDA600;" points="133.827,350.207 137.597,352.384 137.597,358.659 133.827,356.482 			"/>
			<polygon style="fill:#ED9600;" points="248.023,369.339 248.023,371.84 243.106,374.679 243.106,372.177 			"/>
			<polygon style="fill:#ED9600;" points="210.982,390.725 210.982,393.226 206.065,396.065 206.065,393.563 			"/>
			<g>
				
					<rect x="140.321" y="263.757" transform="matrix(0.9836 -0.1801 0.1801 0.9836 -47.1491 30.0141)" style="fill:#554D4E;" width="2.725" height="21.707"/>
			</g>
		</g>
		<g>
			<path style="fill:#FEBFBF;" d="M150.052,260.012c-0.021,0.083-0.578,2.91-0.619,3.24c-0.041,0.31-0.619,0.578-0.619,0.578
				s-0.289,0.454-0.743,0.598c-0.454,0.165-1.094,0.124-1.094,0.124s-4.52-0.702-5.016-1.569c-0.454-0.825-1.197-3.571-1.279-3.983
				v-0.021c-0.021-0.021-0.021-0.021-0.021-0.021c-0.021-0.083-0.557-1.589-3.571-4.107c-2.993-2.518-5.655-6.79-6.027-8.256
				l-0.021-1.651l-0.021-1.115c0,0,0.743-0.289,1.693-0.639c0.021-0.021,0.021-0.021,0.021-0.021
				c1.486-0.557,3.426-1.259,3.715-1.155c0.021-0.021,0.021-0.021,0.021,0c0.144,0.289,1.176,1.032,2.91,4.602
				c1.755,3.571,5.057,10.134,5.346,10.299c0.268,0.185,4.417,1.032,4.871,1.548C150.052,258.98,150.073,259.93,150.052,260.012z"/>
			
				<linearGradient id="SVGID_00000165941918488510176150000004260431958632157852_" gradientUnits="userSpaceOnUse" x1="-3165.1448" y1="251.593" x2="-3157.218" y2="261.6275" gradientTransform="matrix(1 0 0 1 3301.832 0)">
				<stop  offset="0.1224" style="stop-color:#FCA4B5"/>
				<stop  offset="0.9896" style="stop-color:#FFADB7"/>
			</linearGradient>
			<path style="fill:url(#SVGID_00000165941918488510176150000004260431958632157852_);" d="M140.744,258.216
				c-0.082,0.186-0.103,0.475-0.062,0.764c-0.021-0.021-0.021-0.021-0.021-0.021c-0.021-0.083-0.557-1.589-3.571-4.107
				c-2.993-2.518-5.655-6.79-6.027-8.256l-0.021-1.651l-0.021-1.115c0,0,0.743-0.289,1.693-0.639
				c-0.124,0.144-0.759,1.232-0.656,2.243c0,0.248,0.16,0.856,0.284,1.166c0.64,1.651,4.236,6.787,5.8,8.396
				c1.585,1.632,2.848,2.766,2.848,2.766S140.992,257.762,140.744,258.216z"/>
			<path style="fill:#FA9698;" d="M143.522,262.277c0,0,0.423-0.525,0.728-1.335c0.305-0.81,0.521-1.334,0.521-1.334l0.374,1.629
				l0.027,1.463l0.501,0.926l0.687,0.499l-1.458,0.028C144.902,264.153,143.277,263.161,143.522,262.277z"/>
			<path style="fill:#FEC7C6;" d="M141.215,258.494c0,0,1.104-0.142,1.633,1.332c0.529,1.474,1.013,2.712,1.389,3.135
				c0.375,0.423,1.28,0.803,1.28,0.803s1.424,0.551,1.592,0.823c0.168,0.271,0.309,0.6,0.236,1.022
				c-0.073,0.422-0.652,0.332-0.707,0.304c-0.055-0.028-0.91-0.276-0.91-0.276s-0.751,0.051-1.03-0.125
				c-0.279-0.175-2.533-1.816-2.837-2.368c-0.304-0.552-0.999-2.283-1.085-3.342C140.692,258.742,140.762,258.597,141.215,258.494z"
				/>
			<path style="fill:#FEBFBF;" d="M105.742,250.859c0,0,2.381-0.641,3.932,0.521c1.551,1.162,13.568,11.229,16.909,12.379
				c0.179,0.127,2.098,0.995,3.101,1.127c1.003,0.131,4.424-0.03,4.849,0.203c0.425,0.233,1.53,2.76,1.66,3.233
				c0.13,0.473,0.095,1.659,0.004,1.87s-1.253,0.277-1.253,0.277s-0.128,0.47-0.399,0.829c-0.271,0.359-1.443,0.271-1.443,0.271
				s-0.21,0.235-0.723,0.264c-0.513,0.029-0.814-0.142-0.814-0.142s-0.363,0.552-1.396,0.182c-1.033-0.37-1.119-0.965-1.119-0.965
				l-0.123-1.245c0,0-2.454-0.014-3.623-0.668c-1.169-0.654-1.742-1.667-2.596-2.202c-0.854-0.535-18.128-6.238-19.503-10.5
				C101.829,252.033,105.742,250.859,105.742,250.859z"/>
		</g>
		<g>
			<g>
				<g>
					<polygon style="fill:#C99A6B;" points="180.784,379.212 223.247,354.696 223.247,329.791 180.784,354.307 					"/>
					<polygon style="fill:#AE835B;" points="180.784,379.212 146.056,359.162 146.056,334.257 180.784,354.307 					"/>
					<polygon style="fill:#87623F;" points="180.784,354.307 146.056,334.257 188.519,309.741 223.247,329.791 					"/>
					<polygon style="fill:#9C754E;" points="165.867,361.437 160.288,358.216 160.288,342.473 165.867,345.695 					"/>
					<polygon style="fill:#54493E;" points="165.867,345.695 208.33,321.179 202.75,317.957 160.288,342.473 					"/>
					<polygon style="fill:#87623F;" points="146.056,334.257 180.784,354.307 162.045,344.282 					"/>
				</g>
				<polygon style="fill:#D1A986;" points="163.287,344.205 205.749,319.689 205.366,319.467 162.903,343.983 				"/>
			</g>
			<g>
				<g>
					<path style="fill:#87623F;" d="M178.499,364.182l-7.331-4.231v-8.413l7.331,4.231V364.182z M171.652,359.673l6.363,3.674v-7.3
						l-6.363-3.674V359.673z"/>
				</g>
				<g>
					<polygon style="fill:#87623F;" points="175.642,361.488 174.025,360.555 174.025,356.318 175.642,357.251 					"/>
					<polygon style="fill:#87623F;" points="177.231,358.975 172.436,356.207 174.833,354.699 					"/>
				</g>
			</g>
		</g>
		<g>
			<g>
				<g>
					<polygon style="fill:#C99A6B;" points="180.784,353.268 223.247,328.752 223.247,303.847 180.784,328.363 					"/>
					<polygon style="fill:#AE835B;" points="180.784,353.268 146.056,333.218 146.056,308.313 180.784,328.363 					"/>
					<polygon style="fill:#E8B687;" points="180.784,328.363 146.056,308.313 188.519,283.797 223.247,303.847 					"/>
					<polygon style="fill:#9C754E;" points="165.867,335.493 160.288,332.272 160.288,316.529 165.867,319.751 					"/>
					<polygon style="fill:#54493E;" points="165.867,319.751 208.33,295.235 202.75,292.013 160.288,316.529 					"/>
					<polygon style="fill:#87623F;" points="146.056,308.313 180.784,328.363 162.045,318.338 					"/>
				</g>
				<polygon style="fill:#D1A986;" points="163.287,318.261 205.749,293.745 205.366,293.523 162.903,318.039 				"/>
			</g>
			<g>
				<g>
					<path style="fill:#87623F;" d="M178.499,338.239l-7.331-4.233v-8.414l7.331,4.233V338.239z M171.652,333.728l6.363,3.674
						v-7.299l-6.363-3.674V333.728z"/>
				</g>
				<g>
					<polygon style="fill:#87623F;" points="175.642,335.544 174.025,334.611 174.025,330.374 175.642,331.307 					"/>
					<polygon style="fill:#87623F;" points="177.231,333.031 172.436,330.263 174.833,328.755 					"/>
				</g>
			</g>
		</g>
	</g>
</g>
</svg>
